{"title":"And Soon The Darkness (1970)","uid":9903476,"size":1608575224,"categoryP":"video","categoryS":"movies","magnet":"?xt=urn:btih:9b08baa63aa2e28dbbda192e1a91661d9a5b3895&amp;dn=And+Soon+The+Darkness+%281970%29&amp;tr=udp%3A%2F%2Ftracker.openbittorrent.com%3A80&amp;tr=udp%3A%2F%2Fopen.demonii.com%3A1337&amp;tr=udp%3A%2F%2Ftracker.coppersurfer.tk%3A6969&amp;tr=udp%3A%2F%2Fexodus.desync.com%3A6969","seeders":1,"leechers":1,"uploader":"cavallone","files":1,"time":1396808277,"description":"Plot: And Soon the Darkness is a creepy little gem that takes a real minimalist approach to horror. Most importantly is the fact that it's done right. We're introduced to likable characters and given enough information so we can identify and sympathise with them. Then, without warning, we're beaten over the head, repeatedly and there's nothing we can do about it. It isn't until the end of the film that there is even a hint of violence, which makes it all the more upsetting, when it finally happens.\n\n\nRip specs:\n\neneral\nComplete name                    : And.Soon.The.Darkness.1970.DVDRip.x264-judas-cg.mkv\nFormat                           : Matroska\nFile size                        : 1.50 GiB\nDuration                         : 1h 34mn\nOverall bit rate                 : 2 268 Kbps\n\nVideo\nFormat                           : AVC\nCodec ID                         : V_MPEG4/ISO/AVC\nBit rate                         : 2 043 Kbps\nWidth                            : 712 pixels\nHeight                           : 576 pixels\nDisplay aspect ratio             : 16:9\nOriginal display aspect ratio    : 16:9\nFrame rate                       : 25.000 fps\nScan type                        : Progressive\nBits/(Pixel*Frame)               : 0.199\nStream size                      : 1.32 GiB (88%)\n\nAudio\nFormat                           : AC-3\nCodec ID                         : A_AC3\nBit rate                         : 224 Kbps\nChannel(s)                       : 2 channels\nStream size                      : 152 MiB (10%)\nLanguage                         : English","torrent":{"xt":"urn:btih:9b08baa63aa2e28dbbda192e1a91661d9a5b3895","amp;dn":"And+Soon+The+Darkness+%281970%29","amp;tr":["udp%3A%2F%2Ftracker.openbittorrent.com%3A80","udp%3A%2F%2Fopen.demonii.com%3A1337","udp%3A%2F%2Ftracker.coppersurfer.tk%3A6969","udp%3A%2F%2Fexodus.desync.com%3A6969"],"infoHash":"9b08baa63aa2e28dbbda192e1a91661d9a5b3895","infoHashBuffer":{"type":"Buffer","data":[155,8,186,166,58,162,226,141,187,218,25,46,26,145,102,29,154,91,56,149]},"announce":[],"urlList":[]}}